<?xml version="1.0" standalone="no"?>
<!DOCTYPE svg PUBLIC "-//W3C//DTD SVG 20010904//EN"
 "http://www.w3.org/TR/2001/REC-SVG-20010904/DTD/svg10.dtd">
<svg version="1.0" xmlns="http://www.w3.org/2000/svg"
 width="2000.000000pt" height="1500.000000pt" viewBox="0 0 2000.000000 1500.000000"
 preserveAspectRatio="xMidYMid meet">

<g transform="translate(0.000000,1500.000000) scale(0.100000,-0.100000)"
fill="#000000" stroke="none">
<path d="M10710 12118 c-701 -208 -1299 -385 -1327 -393 l-53 -16 0 -1639 0
-1640 -77 39 c-194 97 -425 131 -656 96 -617 -93 -793 -573 -301 -819 412
-206 1035 -90 1200 225 l29 54 3 1252 2 1252 83 25 c45 14 545 163 1111 330
566 168 1037 308 1048 312 17 5 18 -28 18 -986 l0 -991 -52 29 c-344 195 -901
147 -1149 -98 -90 -90 -114 -141 -114 -250 0 -74 4 -92 29 -140 113 -215 483
-358 835 -321 138 14 244 42 346 90 161 76 270 188 295 304 8 38 10 551 8
1858 l-3 1806 -1275 -379z"/>
<path d="M6749 7121 c-20 -16 -24 -29 -24 -74 0 -31 6 -61 14 -70 12 -16 252
-17 3261 -17 3009 0 3249 1 3261 17 8 9 14 39 14 70 0 45 -4 58 -24 74 -23 19
-88 19 -3251 19 -3163 0 -3228 0 -3251 -19z"/>
<path d="M6740 6673 c-18 -23 -21 -37 -17 -77 3 -32 11 -54 23 -63 27 -20
6481 -20 6508 0 12 9 20 31 23 63 4 40 1 54 -17 77 l-21 27 -3239 0 -3239 0
-21 -27z"/>
<path d="M7045 6003 c-16 -2 -60 -8 -97 -14 -80 -13 -85 -25 -38 -95 36 -51
60 -114 60 -155 0 -54 -51 -306 -120 -589 -98 -406 -117 -515 -102 -587 24
-115 81 -163 194 -163 94 1 191 46 310 144 l36 30 -19 38 c-11 21 -22 38 -25
38 -2 0 -27 -11 -54 -25 -64 -32 -88 -32 -96 1 -16 63 28 318 121 704 35 146
73 311 84 367 22 107 27 245 11 287 -9 26 -10 26 -122 25 -62 -1 -126 -4 -143
-6z"/>
<path d="M7877 5996 c-122 -36 -239 -124 -277 -209 -68 -154 -17 -318 204
-646 134 -201 183 -296 199 -386 10 -57 9 -70 -9 -111 -22 -53 -53 -80 -104
-89 l-35 -6 -28 70 c-48 118 -151 261 -189 261 -23 0 -103 -67 -152 -128 -60
-75 -86 -121 -86 -153 0 -31 108 -132 177 -165 50 -24 73 -28 173 -32 136 -5
206 9 320 65 94 46 180 129 217 210 31 69 42 196 24 270 -17 66 -109 255 -162
333 -25 36 -48 70 -52 76 -4 7 19 32 54 60 72 57 158 160 193 231 56 112 42
198 -45 277 -27 24 -70 52 -97 61 -64 23 -259 30 -325 11z m258 -137 c52 -15
105 -68 105 -106 0 -53 -48 -131 -115 -186 -35 -29 -76 -60 -93 -69 l-29 -17
-31 42 c-42 59 -89 155 -97 198 -7 38 9 84 39 108 45 37 146 51 221 30z"/>
<path d="M8790 6000 c-142 -18 -157 -28 -122 -77 11 -15 31 -51 46 -80 45 -91
36 -161 -84 -668 -93 -389 -110 -475 -110 -556 0 -102 34 -170 102 -205 40
-21 138 -17 203 7 58 22 187 103 218 137 18 19 18 22 1 54 -9 18 -18 34 -19
36 -1 1 -26 -9 -56 -23 -30 -14 -65 -25 -78 -25 l-24 0 6 113 c6 133 25 235
117 622 110 466 120 524 100 618 l-11 57 -117 -1 c-64 -1 -142 -5 -172 -9z"/>
<path d="M9482 5995 c-100 -15 -113 -25 -89 -63 10 -15 32 -56 49 -91 30 -61
31 -66 25 -160 -8 -116 -30 -243 -102 -569 -65 -298 -79 -391 -73 -487 6 -89
39 -152 100 -193 53 -35 162 -42 259 -18 71 19 235 95 319 149 60 39 63 38 74
-26 8 -45 58 -105 103 -123 48 -20 134 -17 198 7 58 22 187 103 218 137 18 19
18 22 1 54 -9 18 -18 34 -19 36 -1 1 -26 -9 -56 -23 -72 -33 -95 -33 -102 3
-12 60 20 263 118 742 69 343 95 497 95 578 l0 62 -47 0 c-64 0 -152 -15 -238
-41 l-71 -21 -2 -83 c-2 -119 -34 -327 -98 -640 -30 -148 -63 -310 -72 -360
l-17 -90 -67 -41 c-73 -44 -148 -72 -220 -81 -64 -8 -95 2 -113 37 -31 59 -18
156 80 615 35 165 72 347 81 405 17 108 15 221 -5 273 l-11 27 -117 -1 c-65
-1 -156 -7 -201 -14z"/>
<path d="M11253 5995 c-134 -36 -260 -132 -310 -234 -25 -50 -27 -67 -28 -161
0 -91 3 -111 23 -148 41 -77 121 -139 227 -177 15 -5 2 -12 -52 -24 -101 -25
-178 -67 -249 -136 -73 -73 -110 -144 -126 -247 -41 -270 155 -468 463 -468
195 0 381 87 533 250 l50 53 -44 37 -44 38 -46 -38 c-112 -95 -222 -141 -334
-141 -119 0 -205 71 -227 186 -9 50 6 146 30 194 48 93 173 174 299 193 l70
11 7 54 c4 30 5 56 3 57 -2 1 -30 10 -63 21 -117 39 -170 102 -185 221 -21
165 43 318 141 339 38 9 108 -2 131 -19 16 -12 16 -21 3 -126 -7 -63 -11 -118
-9 -122 18 -29 171 -78 242 -78 39 0 41 2 68 57 36 73 39 167 7 229 -44 84
-142 150 -265 179 -79 18 -246 18 -315 0z"/>
<path d="M12205 6004 c-100 -12 -164 -27 -169 -41 -3 -8 8 -34 24 -59 80 -115
78 -182 -11 -559 -97 -409 -113 -531 -85 -628 19 -66 62 -119 120 -150 32 -16
59 -21 121 -21 102 0 192 27 348 104 64 33 117 54 117 48 0 -16 -52 -192 -59
-200 -4 -4 -50 -19 -104 -32 -118 -30 -285 -109 -349 -165 -67 -60 -102 -134
-96 -210 8 -107 74 -162 203 -169 98 -5 177 11 270 57 211 105 349 295 454
624 55 174 249 1142 266 1331 l8 79 -109 -6 c-67 -3 -135 -14 -176 -26 -75
-24 -67 -5 -88 -191 -28 -239 -124 -756 -166 -892 -2 -9 -34 -28 -70 -42 -141
-57 -272 -72 -315 -37 -22 18 -24 26 -23 108 1 69 14 149 62 363 33 151 69
316 78 365 21 109 24 266 6 318 l-14 37 -106 -1 c-59 -1 -120 -4 -137 -5z
m361 -1661 c-15 -39 -74 -128 -119 -178 -50 -57 -132 -105 -179 -105 -39 0
-68 32 -68 75 0 68 101 145 260 199 91 31 115 33 106 9z"/>
<path d="M13160 2960 l0 -450 50 0 50 0 0 450 0 450 -50 0 -50 0 0 -450z"/>
<path d="M9180 3372 c-29 -9 -50 -35 -50 -61 0 -34 10 -48 40 -59 55 -21 104
33 78 85 -14 28 -44 43 -68 35z"/>
<path d="M12890 3372 c-45 -14 -63 -60 -40 -103 8 -14 21 -19 48 -19 46 0 62
14 62 55 0 47 -33 79 -70 67z"/>
<path d="M6776 2968 c-15 -205 -30 -392 -33 -415 l-5 -43 45 0 c44 0 46 1 51
33 3 17 15 191 28 385 12 193 25 352 29 352 5 0 17 -30 29 -67 11 -38 69 -205
128 -373 l109 -305 49 -3 49 -3 122 353 c67 194 125 363 128 376 9 31 25 28
25 -5 0 -38 39 -626 46 -690 l5 -53 50 0 c27 0 49 2 49 4 0 2 -13 180 -30 396
-16 216 -30 401 -30 412 0 17 -7 19 -82 16 l-82 -3 -68 -190 c-37 -104 -91
-259 -119 -342 -29 -84 -55 -153 -59 -153 -3 0 -32 75 -63 168 -32 92 -86 246
-120 342 l-62 175 -81 3 -80 3 -28 -373z"/>
<path d="M10980 2925 l0 -415 50 0 50 0 0 195 0 195 154 0 154 0 6 31 c3 17 6
35 6 40 0 5 -72 9 -160 9 l-161 0 3 138 3 137 183 3 c165 2 182 4 182 20 0 9
3 27 6 40 l6 22 -241 0 -241 0 0 -415z"/>
<path d="M8745 3114 c-91 -23 -134 -53 -165 -115 -25 -49 -25 -95 0 -136 22
-37 65 -61 167 -94 40 -12 84 -32 99 -44 37 -29 37 -77 0 -113 -24 -25 -33
-27 -104 -26 -56 0 -90 6 -124 22 -26 11 -50 17 -52 13 -3 -4 -8 -26 -12 -49
l-6 -40 77 -17 c135 -30 236 -7 303 69 57 65 55 155 -3 203 -19 16 -77 43
-134 61 -106 35 -141 62 -141 109 0 33 40 70 86 79 33 6 109 -3 170 -21 17 -6
22 0 31 38 10 45 9 45 -18 51 -47 9 -153 15 -174 10z"/>
<path d="M9650 3106 c-93 -25 -163 -86 -206 -181 -23 -50 -28 -74 -28 -141 0
-70 4 -89 30 -140 33 -67 91 -117 157 -135 58 -16 153 -6 210 22 40 20 47 27
47 52 0 23 -3 28 -17 23 -74 -29 -159 -29 -214 0 -41 20 -87 79 -100 126 -15
58 -6 155 19 205 49 95 155 128 253 79 25 -12 34 -13 40 -4 9 15 22 79 16 84
-6 7 -108 24 -136 23 -14 0 -46 -6 -71 -13z"/>
<path d="M10183 3110 c-63 -13 -133 -47 -133 -64 0 -8 4 -26 10 -40 l9 -25 54
24 c145 67 247 26 247 -98 l0 -45 -93 -4 c-152 -6 -233 -57 -256 -160 -24
-105 48 -198 151 -198 41 0 108 30 158 70 l38 30 12 -35 c16 -47 50 -69 96
-62 52 9 84 33 84 63 0 23 -3 25 -28 19 -52 -11 -56 6 -62 231 -6 227 -10 241
-82 277 -42 21 -146 30 -205 17z m187 -374 c0 -72 -1 -74 -35 -100 -60 -46
-103 -60 -147 -47 -79 24 -93 141 -23 187 24 16 98 30 173 33 l32 1 0 -74z"/>
<path d="M11743 3110 c-24 -5 -63 -18 -89 -29 -44 -20 -45 -22 -39 -53 11 -49
11 -49 69 -22 143 66 246 24 246 -99 l0 -45 -93 -4 c-170 -7 -257 -75 -257
-200 0 -66 27 -114 80 -140 65 -33 146 -15 230 52 39 30 50 30 50 -2 0 -10 12
-31 26 -45 21 -21 32 -25 65 -20 55 7 89 32 89 63 0 23 -3 25 -28 19 -52 -11
-56 6 -62 231 -6 227 -10 241 -82 277 -42 21 -146 30 -205 17z m187 -375 l0
-75 -41 -29 c-59 -43 -101 -55 -143 -41 -75 24 -88 142 -21 186 24 16 98 30
173 33 l32 1 0 -75z"/>
<path d="M12467 3109 c-62 -15 -112 -45 -160 -99 -58 -65 -82 -132 -81 -230 0
-118 48 -205 139 -253 60 -32 183 -31 253 2 45 21 52 28 52 54 0 23 -3 28 -17
23 -177 -68 -323 24 -323 203 0 177 138 278 281 207 25 -12 34 -13 40 -4 9 15
22 79 16 84 -6 7 -109 24 -136 23 -14 -1 -43 -5 -64 -10z"/>
<path d="M7880 2897 c0 -243 9 -293 62 -344 61 -59 122 -67 204 -29 28 13 67
38 87 56 21 18 39 31 41 29 2 -2 8 -24 13 -49 8 -43 10 -45 46 -48 l37 -3 0
300 0 301 -50 0 -50 0 0 -218 0 -218 -27 -27 c-42 -40 -118 -70 -156 -62 -42
9 -85 50 -97 94 -5 20 -10 125 -10 234 l0 197 -50 0 -50 0 0 -213z"/>
<path d="M9140 2810 l0 -300 50 0 50 0 0 300 0 300 -50 0 -50 0 0 -300z"/>
<path d="M12850 2810 l0 -300 50 0 50 0 0 300 0 300 -50 0 -50 0 0 -300z"/>
</g>
</svg>
